<svg width="28" height="28" viewBox="0 0 28 28" fill="none" xmlns="http://www.w3.org/2000/svg">
<path d="M22.1935 19.8065C21.6471 19.2831 21.1153 18.7447 20.5987 18.1918C20.1647 17.7508 19.9034 17.43 19.9034 17.43L16.6367 15.8702C17.9445 14.3869 18.6663 12.4775 18.6667 10.5C18.6667 5.99784 15.0034 2.33334 10.5 2.33334C5.99671 2.33334 2.33337 5.99784 2.33337 10.5C2.33337 15.0022 5.99671 18.6667 10.5 18.6667C12.5569 18.6667 14.4317 17.8967 15.8702 16.6378L17.43 19.9045C17.43 19.9045 17.7509 20.1658 18.1919 20.5998C18.6434 21.0233 19.2372 21.5962 19.8065 22.1947L21.3909 23.8187L22.0955 24.5723L24.57 22.0978L23.8164 21.3932C23.3742 20.9592 22.7839 20.3828 22.1935 19.8065ZM10.5 16.3333C7.28354 16.3333 4.66671 13.7165 4.66671 10.5C4.66671 7.28351 7.28354 4.66668 10.5 4.66668C13.7165 4.66668 16.3334 7.28351 16.3334 10.5C16.3334 13.7165 13.7165 16.3333 10.5 16.3333Z" fill="#AAAAAA"/>
</svg>
