<svg width="26" height="26" viewBox="0 0 26 26" fill="none" xmlns="http://www.w3.org/2000/svg">
<path d="M22.6926 8.99704C22.6817 8.17655 22.5281 7.36421 22.2387 6.59637C21.9877 5.9487 21.6044 5.3605 21.1133 4.86935C20.6221 4.37821 20.0339 3.99491 19.3863 3.74395C18.6283 3.45942 17.8275 3.30557 17.0181 3.28895C15.9759 3.24237 15.6455 3.22937 13 3.22937C10.3545 3.22937 10.0154 3.22937 8.98085 3.28895C8.17177 3.3057 7.37139 3.45954 6.61377 3.74395C5.96599 3.99473 5.3777 4.37797 4.88653 4.86914C4.39536 5.36031 4.01213 5.9486 3.76135 6.59637C3.47625 7.35376 3.32273 8.15432 3.30743 8.96345C3.26085 10.0067 3.24677 10.3371 3.24677 12.9826C3.24677 15.6281 3.24677 15.9661 3.30743 17.0018C3.32368 17.8121 3.47643 18.6116 3.76135 19.371C4.01255 20.0186 4.39607 20.6067 4.8874 21.0976C5.37874 21.5886 5.96708 21.9717 6.61485 22.2224C7.3704 22.5183 8.17092 22.6832 8.98193 22.7099C10.0252 22.7565 10.3556 22.7705 13.0011 22.7705C15.6466 22.7705 15.9857 22.7705 17.0203 22.7099C17.8297 22.6939 18.6305 22.5404 19.3884 22.256C20.0359 22.0047 20.624 21.6213 21.1151 21.1302C21.6062 20.6391 21.9896 20.051 22.2408 19.4035C22.5258 18.6452 22.6785 17.8457 22.6948 17.0343C22.7413 15.9921 22.7554 15.6617 22.7554 13.0151C22.7533 10.3696 22.7533 10.0338 22.6926 8.99704ZM12.9935 17.9855C10.2267 17.9855 7.98526 15.744 7.98526 12.9772C7.98526 10.2104 10.2267 7.96895 12.9935 7.96895C14.3218 7.96895 15.5957 8.49661 16.5349 9.43584C17.4741 10.3751 18.0018 11.6489 18.0018 12.9772C18.0018 14.3055 17.4741 15.5793 16.5349 16.5186C15.5957 17.4578 14.3218 17.9855 12.9935 17.9855ZM18.2011 8.95154C18.0477 8.95168 17.8958 8.92157 17.754 8.86293C17.6123 8.80429 17.4835 8.71828 17.375 8.6098C17.2665 8.50133 17.1805 8.37253 17.1219 8.23078C17.0632 8.08903 17.0331 7.93711 17.0333 7.7837C17.0333 7.63041 17.0635 7.47862 17.1221 7.337C17.1808 7.19538 17.2668 7.0667 17.3752 6.9583C17.4836 6.84991 17.6122 6.76393 17.7539 6.70527C17.8955 6.64661 18.0473 6.61641 18.2006 6.61641C18.3538 6.61641 18.5056 6.64661 18.6473 6.70527C18.7889 6.76393 18.9176 6.84991 19.026 6.9583C19.1343 7.0667 19.2203 7.19538 19.279 7.337C19.3377 7.47862 19.3678 7.63041 19.3678 7.7837C19.3678 8.42937 18.8457 8.95154 18.2011 8.95154Z" fill="#AAAAAA"/>
<path d="M12.9935 16.2305C14.7902 16.2305 16.2468 14.774 16.2468 12.9772C16.2468 11.1805 14.7902 9.724 12.9935 9.724C11.1968 9.724 9.74026 11.1805 9.74026 12.9772C9.74026 14.774 11.1968 16.2305 12.9935 16.2305Z" fill="#AAAAAA"/>
</svg>
