<svg width="34" height="34" viewBox="0 0 34 34" fill="none" xmlns="http://www.w3.org/2000/svg">
<path d="M30.3535 15.7179L6.27012 4.38458C6.02761 4.27046 5.7577 4.22749 5.49174 4.26063C5.22578 4.29378 4.97468 4.40169 4.7676 4.57184C4.56052 4.74198 4.40595 4.96738 4.32184 5.22186C4.23774 5.47634 4.22754 5.74945 4.29245 6.00949L6.00945 12.8789L16.9999 17L6.00945 21.1211L4.29245 27.9905C4.22632 28.2507 4.23567 28.5244 4.31938 28.7795C4.4031 29.0346 4.55773 29.2606 4.76519 29.4311C4.97264 29.6015 5.22435 29.7094 5.49085 29.742C5.75736 29.7747 6.02766 29.7308 6.27012 29.6154L30.3535 18.2821C30.5968 18.1677 30.8026 17.9864 30.9468 17.7593C31.0909 17.5323 31.1674 17.2689 31.1674 17C31.1674 16.7311 31.0909 16.4677 30.9468 16.2407C30.8026 16.0136 30.5968 15.8323 30.3535 15.7179Z" fill="#AAAAAA"/>
</svg>
